<?xml version="1.0" standalone="no"?><!DOCTYPE svg PUBLIC "-//W3C//DTD SVG 1.1//EN" "http://www.w3.org/Graphics/SVG/1.1/DTD/svg11.dtd"><svg width="800" height="800" version="1.1" xmlns="http://www.w3.org/2000/svg" xmlns:xlink="http://www.w3.org/1999/xlink"><defs xmlns="http://www.w3.org/1999/xhtml"><style type="text/css"><![CDATA[
body { background-color: rgb(234, 234, 234); }
#canvas svg { box-shadow: rgba(0, 0, 0, 0.0588235) 0px 3px 2px 0px, rgba(0, 0, 0, 0.0196078) -1px -1px 1px 0px inset; border-width: 1px; border-style: solid; border-color: rgb(226, 226, 226) rgb(226, 226, 226) rgb(206, 206, 206); background-color: white; }]]></style></defs><polygon points="0 0 400 0 408 0 411 40 419 80 393 120 381 160 386 200 411 240 417 280 404 320 400 360 401 400 415 440 415 480 390 520 402 560 420 600 403 640 384 680 400 720 411 760 400 800 0 800" fill="rgb(255, 13, 0)" stroke="none"/><polygon points="800 0 800 800 400 800 413 800 394 760 416 720 402 680 395 640 394 600 400 560 387 520 403 480 405 440 386 400 395 360 407 320 417 280 402 240 395 200 390 160 392 120 395 80 416 40 400 0" fill="rgb(0, 242, 255)" stroke="none"/></svg>