<?xml version="1.0" standalone="no"?><!DOCTYPE svg PUBLIC "-//W3C//DTD SVG 1.1//EN" "http://www.w3.org/Graphics/SVG/1.1/DTD/svg11.dtd"><svg width="600" height="600" version="1.1" xmlns="http://www.w3.org/2000/svg" xmlns:xlink="http://www.w3.org/1999/xlink"><defs xmlns="http://www.w3.org/1999/xhtml"><style type="text/css"><![CDATA[
body { background-color: rgb(234, 234, 234); }
#canvas svg { box-shadow: rgba(0, 0, 0, 0.0588235) 0px 3px 2px 0px, rgba(0, 0, 0, 0.0196078) -1px -1px 1px 0px inset; border-width: 1px; border-style: solid; border-color: rgb(226, 226, 226) rgb(226, 226, 226) rgb(206, 206, 206); background-color: white; }]]></style></defs><path d="M 12.672 -32.88 Q 15.36 -32.88 17.28 -32.232 Q 19.2 -31.584 20.208000000000002 -30.768 Q 20.208000000000002 -29.376 20.256 -27.552 Q 20.304000000000002 -25.728 20.496 -24.432000000000002 Q 19.968 -24.192 19.224 -24.096 Q 18.48 -24 17.808 -24 Q 17.424 -26.064 16.944 -27.384 Q 16.464 -28.704 15.816 -29.448 Q 15.168000000000001 -30.192 14.376 -30.48 Q 13.584 -30.768 12.672 -30.768 Q 10.512 -30.768 9.264 -29.52 Q 8.016 -28.272000000000002 8.016 -25.968 Q 8.016 -23.856 9.120000000000001 -22.512 Q 10.224 -21.168 11.88 -20.112000000000002 Q 13.536 -19.056 15.456 -18.12 Q 17.376 -17.184 19.032 -15.96 Q 20.688 -14.736 21.792 -13.008000000000001 Q 22.896 -11.28 22.896 -8.64 Q 22.896 -6.816 22.152 -5.16 Q 21.408 -3.504 20.112000000000002 -2.2560000000000002 Q 18.816 -1.008 17.04 -0.28800000000000003 Q 15.264000000000001 0.432 13.152000000000001 0.432 Q 11.472 0.432 10.200000000000001 0.264 Q 8.928 0.096 7.848 -0.264 Q 6.768 -0.624 5.688 -1.2 Q 4.6080000000000005 -1.776 3.2640000000000002 -2.64 Q 3.552 -4.464 3.624 -6.288 Q 3.696 -8.112 3.696 -9.456 Q 4.224 -9.6 4.944 -9.672 Q 5.664 -9.744 6.288 -9.744 Q 6.384 -7.92 6.768 -6.48 Q 7.152 -5.04 7.944 -4.008 Q 8.736 -2.976 10.056000000000001 -2.424 Q 11.376 -1.872 13.392 -1.872 Q 14.736 -1.872 15.744 -2.2800000000000002 Q 16.752 -2.688 17.424 -3.36 Q 18.096 -4.032 18.456 -4.92 Q 18.816 -5.808 18.816 -6.816 Q 18.816 -8.976 17.712 -10.32 Q 16.608 -11.664 14.952 -12.648 Q 13.296000000000001 -13.632 11.352 -14.52 Q 9.408 -15.408 7.752 -16.632 Q 6.096 -17.856 4.992 -19.68 Q 3.888 -21.504 3.888 -24.432000000000002 Q 3.888 -26.304000000000002 4.5360000000000005 -27.864 Q 5.184 -29.424 6.336 -30.552 Q 7.488 -31.68 9.096 -32.28 Q 10.704 -32.88 12.672 -32.88 Z M 49.488 -6.096 Q 49.488 -3.6 50.184 -2.7600000000000002 Q 50.879999999999995 -1.92 52.32 -1.92 Q 52.464 -1.488 52.512 -1.008 Q 52.56 -0.528 52.56 0.14400000000000002 Q 51.504000000000005 0.048 50.16 0.024 Q 48.816 0 47.328 0 Q 45.84 0 44.28 0.048 Q 42.72 0.096 41.616 0.14400000000000002 Q 41.616 -1.248 41.856 -1.92 Q 43.584 -1.92 44.376000000000005 -2.8080000000000003 Q 45.168 -3.696 45.168 -6.096 L 45.168 -13.392 Q 45.168 -15.072000000000001 44.832 -16.2 Q 44.495999999999995 -17.328 43.896 -18 Q 43.296 -18.672 42.480000000000004 -18.96 Q 41.664 -19.248 40.704 -19.248 Q 39.744 -19.248 38.784 -18.816 Q 37.824 -18.384 37.056 -17.424 Q 36.288 -16.464 35.784 -14.952 Q 35.28 -13.44 35.28 -11.232000000000001 L 35.28 -6.096 Q 35.28 -3.696 36 -2.8080000000000003 Q 36.72 -1.92 38.592 -1.92 Q 38.736000000000004 -1.488 38.784 -1.008 Q 38.832 -0.528 38.832 0.14400000000000002 Q 37.824 0.096 36.216 0.048 Q 34.608000000000004 0 33.12 0 Q 31.631999999999998 0 30.048000000000002 0.024 Q 28.464 0.048 27.408 0.14400000000000002 Q 27.408 -1.248 27.648 -1.92 Q 29.52 -1.92 30.240000000000002 -2.8080000000000003 Q 30.96 -3.696 30.96 -6.096 L 30.96 -27.6 Q 30.96 -28.464000000000002 30.864 -29.088 Q 30.768 -29.712 30.384 -30.144000000000002 Q 30 -30.576 29.28 -30.792 Q 28.56 -31.008 27.36 -31.008 Q 27.36 -31.536 27.456 -31.968 Q 27.552 -32.4 27.792 -32.784 Q 28.32 -32.784 29.232 -32.928 Q 30.144 -33.072 31.104 -33.288000000000004 Q 32.064 -33.504 32.928 -33.816 Q 33.792 -34.128 34.224000000000004 -34.416000000000004 Q 34.656 -34.272 34.968 -33.84 Q 35.28 -33.408 35.28 -32.496 L 35.28 -20.304000000000002 Q 35.28 -19.728 35.232 -19.008 Q 35.184 -18.288 34.944 -17.472 Q 35.088 -17.712 35.232 -18.024 Q 35.376 -18.336000000000002 35.664 -18.72 Q 36.048 -19.296 36.72 -19.896 Q 37.391999999999996 -20.496 38.28 -21 Q 39.168 -21.504 40.248 -21.84 Q 41.328 -22.176000000000002 42.623999999999995 -22.176000000000002 Q 43.968 -22.176000000000002 45.216 -21.768 Q 46.464 -21.36 47.424 -20.448 Q 48.384 -19.536 48.936 -18.048000000000002 Q 49.488 -16.56 49.488 -14.352 L 49.488 -6.096 Z M 58.512 -30.624000000000002 Q 58.512 -31.92 59.376000000000005 -32.736000000000004 Q 60.24 -33.552 61.344 -33.552 Q 62.64 -33.552 63.432 -32.736000000000004 Q 64.224 -31.92 64.224 -30.624000000000002 Q 64.224 -29.52 63.384 -28.68 Q 62.544000000000004 -27.84 61.344 -27.84 Q 60.096000000000004 -27.84 59.304 -28.656000000000002 Q 58.512 -29.472 58.512 -30.624000000000002 M 63.888000000000005 -6.096 Q 63.888000000000005 -3.696 64.536 -2.8080000000000003 Q 65.184 -1.92 66.72 -1.92 Q 66.864 -1.3920000000000001 66.912 -0.792 Q 66.96000000000001 -0.192 66.96000000000001 0.14400000000000002 Q 65.712 0.048 64.32000000000001 0.024 Q 62.928000000000004 0 61.536 0 Q 60.144000000000005 0 58.68 0.024 Q 57.216 0.048 56.016000000000005 0.14400000000000002 Q 56.016000000000005 -0.336 56.064 -0.888 Q 56.112 -1.44 56.256 -1.92 Q 58.176 -1.92 58.872 -2.8080000000000003 Q 59.568000000000005 -3.696 59.568000000000005 -6.096 L 59.568000000000005 -15.6 Q 59.568000000000005 -16.464 59.472 -17.088 Q 59.376000000000005 -17.712 58.992000000000004 -18.144000000000002 Q 58.608000000000004 -18.576 57.888000000000005 -18.792 Q 57.168 -19.008 55.968 -19.008 Q 55.968 -19.536 56.064 -19.968 Q 56.160000000000004 -20.400000000000002 56.400000000000006 -20.784 Q 56.928000000000004 -20.784 57.84 -20.928 Q 58.752 -21.072 59.712 -21.288 Q 60.672000000000004 -21.504 61.536 -21.816 Q 62.400000000000006 -22.128 62.832 -22.416 Q 63.264 -22.272000000000002 63.576 -21.84 Q 63.888000000000005 -21.408 63.888000000000005 -20.496 L 63.888000000000005 -6.096 Z M 78.768 -14.304 Q 78.432 -13.248000000000001 78.384 -12.144 L 78.384 -7.056 Q 78.384 -5.472 78.62400000000001 -4.5120000000000005 Q 78.864 -3.552 79.39200000000001 -2.976 Q 79.92 -2.4 80.712 -2.184 Q 81.504 -1.968 82.656 -1.92 Q 82.896 -1.248 82.896 0.14400000000000002 Q 81.792 0.048 80.16 0.024 Q 78.528 0 76.848 0 L 75.072 0 Q 74.16000000000001 0 73.296 0.024 Q 72.432 0.048 71.712 0.07200000000000001 Q 70.992 0.096 70.512 0.14400000000000002 Q 70.512 -1.248 70.75200000000001 -1.92 Q 72.672 -2.016 73.36800000000001 -2.856 Q 74.06400000000001 -3.696 74.06400000000001 -6.096 L 74.06400000000001 -15.6 Q 74.06400000000001 -16.464 73.944 -17.088 Q 73.824 -17.712 73.44 -18.12 Q 73.05600000000001 -18.528 72.36 -18.744 Q 71.664 -18.96 70.464 -19.008 Q 70.464 -19.536 70.56 -19.968 Q 70.656 -20.400000000000002 70.896 -20.784 Q 71.616 -20.832 72.504 -21 Q 73.39200000000001 -21.168 74.28 -21.384 Q 75.168 -21.6 75.96000000000001 -21.864 Q 76.75200000000001 -22.128 77.328 -22.416 Q 77.76 -22.272000000000002 78.072 -21.816 Q 78.384 -21.36 78.384 -20.304000000000002 Q 78.384 -18.624 78.096 -17.328 L 77.664 -15.36 Q 77.952 -16.080000000000002 78.096 -16.656 Q 78.384 -17.52 78.768 -18.096 Q 79.82400000000001 -19.776 81.26400000000001 -20.88 Q 82.70400000000001 -21.984 84.57600000000001 -21.984 Q 85.536 -21.984 86.328 -21.696 Q 87.12 -21.408 87.888 -20.832 Q 87.696 -19.632 87.62400000000001 -18.024 Q 87.552 -16.416 87.552 -15.168000000000001 Q 87.12 -15.024000000000001 86.376 -14.88 Q 85.632 -14.736 84.816 -14.736 Q 84.72 -17.04 84.072 -17.76 Q 83.424 -18.48 82.464 -18.48 Q 81.84 -18.48 81.12 -17.952 Q 80.4 -17.424 79.80000000000001 -16.488 Q 79.2 -15.552 78.768 -14.304 Z M 98.59200000000001 -10.704 Q 97.00800000000001 -10.656 95.52000000000001 -10.56 Q 95.56800000000001 -9.504 95.76000000000002 -8.496 Q 96.09600000000002 -6.768 96.88800000000002 -5.376 Q 97.68 -3.984 99.02400000000002 -3.12 Q 100.36800000000001 -2.2560000000000002 102.48000000000002 -2.2560000000000002 Q 104.06400000000002 -2.2560000000000002 105.60000000000001 -2.952 Q 107.13600000000001 -3.648 108.33600000000001 -5.04 Q 108.72000000000001 -4.8 109.05600000000001 -4.368 Q 109.39200000000001 -3.936 109.48800000000001 -3.552 Q 107.80800000000002 -1.3920000000000001 105.69600000000001 -0.48 Q 103.58400000000002 0.432 100.94400000000002 0.432 Q 98.4 0.432 96.48000000000002 -0.48 Q 94.56000000000002 -1.3920000000000001 93.28800000000001 -2.928 Q 92.01600000000002 -4.464 91.39200000000001 -6.5520000000000005 Q 90.76800000000001 -8.64 90.76800000000001 -10.992 Q 90.76800000000001 -13.296000000000001 91.46400000000001 -15.36 Q 92.16000000000001 -17.424 93.43200000000002 -19.008 Q 94.70400000000001 -20.592 96.552 -21.504 Q 98.4 -22.416 100.70400000000001 -22.416 Q 103.05600000000001 -22.416 104.68800000000002 -21.624 Q 106.32000000000002 -20.832 107.376 -19.488 Q 108.43200000000002 -18.144000000000002 108.98400000000001 -16.344 Q 109.53600000000002 -14.544 109.68 -12.48 Q 109.48800000000001 -11.52 108.96000000000001 -10.848 L 106.51200000000001 -10.848 Q 104.88000000000001 -10.848 102.84000000000002 -10.824 Q 100.80000000000001 -10.8 98.59200000000001 -10.704 M 95.85600000000001 -15.936 Q 95.56800000000001 -14.736 95.47200000000001 -13.008000000000001 L 104.68800000000002 -13.008000000000001 Q 104.68800000000002 -16.176000000000002 103.53600000000002 -18.144000000000002 Q 102.38400000000001 -20.112000000000002 100.27200000000002 -20.112000000000002 Q 99.40800000000002 -20.112000000000002 98.54400000000001 -19.752 Q 97.68 -19.392 96.98400000000001 -18.456 Q 96.28800000000001 -17.52 95.85600000000001 -15.936 Z" transform="translate(300 304)" fill="rgb(0, 0, 0)" stroke="none"/><path d="M 10.8 -25.296 Q 12.864 -20.592 14.832 -15.84 Q 16.656 -11.472 18.528 -6.768 Q 20.208000000000002 -11.040000000000001 21.744 -15.168000000000001 Q 23.472 -19.776 25.104 -24.672 Q 26.016000000000002 -27.312 25.632 -28.8 Q 25.248 -30.288 22.992 -30.528000000000002 Q 22.848 -31.056 22.8 -31.632 Q 22.752 -32.208 22.752 -32.592 Q 23.808 -32.496 24.768 -32.472 Q 25.728 -32.448 26.832 -32.448 Q 27.936 -32.448 29.304000000000002 -32.472 Q 30.672 -32.496 31.728 -32.592 Q 31.728 -32.064 31.68 -31.560000000000002 Q 31.632 -31.056 31.488 -30.528000000000002 Q 30 -30.144000000000002 29.16 -28.704 Q 28.32 -27.264 27.456 -24.864 Q 25.2 -18.624 22.92 -12.408 Q 20.64 -6.192 18.192 0.096 Q 17.376 0.28800000000000003 16.32 0.28800000000000003 Q 14.928 -3.216 13.512 -6.672 Q 12.096 -10.128 10.728 -13.368 Q 9.36 -16.608 8.088000000000001 -19.56 Q 6.816 -22.512 5.664 -25.008 Q 4.848 -26.784 4.344 -27.84 Q 3.84 -28.896 3.408 -29.472 Q 2.976 -30.048000000000002 2.544 -30.240000000000002 Q 2.112 -30.432000000000002 1.44 -30.528000000000002 Q 1.296 -31.104 1.248 -31.656000000000002 Q 1.2 -32.208 1.2 -32.592 Q 2.16 -32.496 3.8160000000000003 -32.472 Q 5.472 -32.448 7.008 -32.448 Q 10.08 -32.448 12.816 -32.592 Q 12.816 -31.632 12.576 -30.528000000000002 Q 11.424 -30.432000000000002 10.728 -30.216 Q 10.032 -30 9.816 -29.448 Q 9.6 -28.896 9.84 -27.912 Q 10.08 -26.928 10.8 -25.296 Z M 34.8 -30.624000000000002 Q 34.8 -31.92 35.664 -32.736000000000004 Q 36.528 -33.552 37.632 -33.552 Q 38.928 -33.552 39.72 -32.736000000000004 Q 40.512 -31.92 40.512 -30.624000000000002 Q 40.512 -29.52 39.672 -28.68 Q 38.832 -27.84 37.632 -27.84 Q 36.384 -27.84 35.592 -28.656000000000002 Q 34.8 -29.472 34.8 -30.624000000000002 M 40.176 -6.096 Q 40.176 -3.696 40.824 -2.8080000000000003 Q 41.472 -1.92 43.007999999999996 -1.92 Q 43.152 -1.3920000000000001 43.2 -0.792 Q 43.248 -0.192 43.248 0.14400000000000002 Q 42 0.048 40.608 0.024 Q 39.216 0 37.824 0 Q 36.432 0 34.967999999999996 0.024 Q 33.504 0.048 32.304 0.14400000000000002 Q 32.304 -0.336 32.352 -0.888 Q 32.4 -1.44 32.544 -1.92 Q 34.464 -1.92 35.16 -2.8080000000000003 Q 35.856 -3.696 35.856 -6.096 L 35.856 -15.6 Q 35.856 -16.464 35.76 -17.088 Q 35.664 -17.712 35.28 -18.144000000000002 Q 34.896 -18.576 34.176 -18.792 Q 33.455999999999996 -19.008 32.256 -19.008 Q 32.256 -19.536 32.352 -19.968 Q 32.448 -20.400000000000002 32.688 -20.784 Q 33.216 -20.784 34.128 -20.928 Q 35.04 -21.072 36 -21.288 Q 36.96 -21.504 37.824 -21.816 Q 38.688 -22.128 39.12 -22.416 Q 39.552 -22.272000000000002 39.864 -21.84 Q 40.176 -21.408 40.176 -20.496 L 40.176 -6.096 Z M 50.304 -27.6 Q 50.304 -28.464000000000002 50.208 -29.088 Q 50.112 -29.712 49.728 -30.144000000000002 Q 49.344 -30.576 48.624 -30.792 Q 47.904 -31.008 46.704 -31.008 Q 46.704 -31.536 46.800000000000004 -31.968 Q 46.896 -32.4 47.136 -32.784 Q 47.664 -32.784 48.576 -32.928 Q 49.488 -33.072 50.448 -33.288000000000004 Q 51.408 -33.504 52.272 -33.816 Q 53.136 -34.128 53.568 -34.416000000000004 Q 54 -34.272 54.312 -33.84 Q 54.624 -33.408 54.624 -32.496 L 54.624 -6.096 Q 54.624 -3.696 55.272 -2.8080000000000003 Q 55.92 -1.92 57.456 -1.92 Q 57.6 -1.3920000000000001 57.648 -0.792 Q 57.696 -0.192 57.696 0.14400000000000002 Q 56.448 0.048 55.056 0.024 Q 53.664 0 52.272 0 Q 50.88 0 49.416000000000004 0.024 Q 47.952 0.048 46.752 0.14400000000000002 Q 46.752 -0.336 46.800000000000004 -0.888 Q 46.848 -1.44 46.992000000000004 -1.92 Q 48.912 -1.92 49.608000000000004 -2.8080000000000003 Q 50.304 -3.696 50.304 -6.096 L 50.304 -27.6 Z M 64.704 -27.6 Q 64.704 -28.464000000000002 64.608 -29.088 Q 64.512 -29.712 64.128 -30.144000000000002 Q 63.744 -30.576 63.024 -30.792 Q 62.304 -31.008 61.104 -31.008 Q 61.104 -31.536 61.2 -31.968 Q 61.296 -32.4 61.536 -32.784 Q 62.064 -32.784 62.976 -32.928 Q 63.888 -33.072 64.848 -33.288000000000004 Q 65.80799999999999 -33.504 66.672 -33.816 Q 67.536 -34.128 67.968 -34.416000000000004 Q 68.4 -34.272 68.712 -33.84 Q 69.024 -33.408 69.024 -32.496 L 69.024 -6.096 Q 69.024 -3.696 69.672 -2.8080000000000003 Q 70.32 -1.92 71.856 -1.92 Q 72 -1.3920000000000001 72.048 -0.792 Q 72.096 -0.192 72.096 0.14400000000000002 Q 70.848 0.048 69.456 0.024 Q 68.064 0 66.672 0 Q 65.28 0 63.816 0.024 Q 62.352 0.048 61.152 0.14400000000000002 Q 61.152 -0.336 61.2 -0.888 Q 61.248 -1.44 61.391999999999996 -1.92 Q 63.312 -1.92 64.008 -2.8080000000000003 Q 64.704 -3.696 64.704 -6.096 L 64.704 -27.6 Z M 88.512 -10.896 Q 87.264 -10.752 85.92 -10.488 Q 84.576 -10.224 83.472 -9.696 Q 82.368 -9.168000000000001 81.624 -8.232 Q 80.88 -7.296 80.88 -5.712 Q 80.88 -3.936 81.744 -3.12 Q 82.608 -2.3040000000000003 83.712 -2.3040000000000003 Q 84.48 -2.3040000000000003 85.32 -2.688 Q 86.16 -3.072 86.88 -3.888 Q 87.6 -4.704 88.056 -5.976 Q 88.512 -7.248 88.512 -9.072000000000001 L 88.512 -10.896 M 92.832 -7.152 Q 92.832 -4.848 93.336 -4.08 Q 93.84 -3.3120000000000003 95.568 -3.3120000000000003 Q 95.568 -2.7840000000000003 95.496 -2.136 Q 95.424 -1.488 95.232 -1.056 Q 93.984 -0.864 92.568 -0.456 Q 91.152 -0.048 90.144 0.432 Q 89.664 0.24 89.304 -0.28800000000000003 Q 88.944 -0.8160000000000001 88.944 -1.92 Q 88.944 -2.64 88.992 -3.12 Q 89.03999999999999 -3.6 89.03999999999999 -3.936 Q 88.848 -3.3120000000000003 88.488 -2.688 Q 88.128 -2.064 87.264 -1.296 Q 86.448 -0.5760000000000001 85.27199999999999 -0.12 Q 84.096 0.336 82.464 0.336 Q 79.344 0.336 77.78399999999999 -1.008 Q 76.224 -2.352 76.224 -4.752 Q 76.224 -7.104 77.592 -8.568 Q 78.96 -10.032 80.904 -10.92 Q 82.848 -11.808 84.93599999999999 -12.216000000000001 Q 87.024 -12.624 88.512 -12.864 Q 88.512 -14.352 88.464 -15.312000000000001 Q 88.416 -16.272000000000002 88.32 -16.92 Q 88.224 -17.568 88.008 -18 Q 87.792 -18.432000000000002 87.50399999999999 -18.816 Q 86.352 -20.256 84.432 -20.256 Q 83.328 -20.256 82.56 -19.68 Q 81.792 -19.104 81.288 -18.264 Q 80.78399999999999 -17.424 80.568 -16.464 Q 80.352 -15.504 80.304 -14.688 Q 79.776 -14.688 78.984 -14.76 Q 78.192 -14.832 77.80799999999999 -15.024000000000001 Q 77.904 -16.224 77.856 -17.688 Q 77.80799999999999 -19.152 77.568 -20.256 Q 79.488 -21.216 81.6 -21.816 Q 83.712 -22.416 85.968 -22.416 Q 87.6 -22.416 88.752 -21.912 Q 89.904 -21.408 90.816 -20.544 Q 91.44 -19.92 91.824 -19.2 Q 92.208 -18.48 92.424 -17.496 Q 92.64 -16.512 92.73599999999999 -15.264000000000001 Q 92.832 -14.016 92.832 -12.288 L 92.832 -7.152 Z M 108.384 -22.416 Q 110.064 -22.416 111.408 -21.984 L 119.28 -21.984 Q 119.472 -21.36 119.544 -20.568 Q 119.616 -19.776 119.616 -19.008 Q 119.03999999999999 -19.152 118.27199999999999 -19.296 Q 117.50399999999999 -19.44 116.71199999999999 -19.56 Q 115.91999999999999 -19.68 115.152 -19.776 L 114.96 -19.776 L 115.152 -19.584 Q 116.208 -18.432000000000002 116.68799999999999 -17.088 Q 117.16799999999999 -15.744 117.16799999999999 -14.736 Q 117.16799999999999 -13.056000000000001 116.616 -11.592 Q 116.064 -10.128 114.96 -9.024000000000001 Q 113.856 -7.92 112.22399999999999 -7.296 Q 110.592 -6.672 108.47999999999999 -6.672 Q 106.752 -6.672 105.16799999999999 -7.152 Q 104.976 -7.248 104.78399999999999 -7.296 Q 104.256 -6.768 103.96799999999999 -6.288 Q 103.584 -5.5680000000000005 103.584 -5.04 Q 103.584 -4.368 103.8 -3.984 Q 104.01599999999999 -3.6 104.75999999999999 -3.384 Q 105.50399999999999 -3.168 106.872 -3.096 Q 108.24 -3.024 110.544 -3.024 Q 112.94399999999999 -3.024 114.6 -2.736 Q 116.256 -2.448 117.288 -1.824 Q 118.32 -1.2 118.776 -0.168 Q 119.232 0.864 119.232 2.3040000000000003 Q 119.232 3.936 118.344 5.64 Q 117.45599999999999 7.344 115.872 8.76 Q 114.288 10.176 112.104 11.064 Q 109.92 11.952 107.328 11.952 Q 102.86399999999999 11.952 100.92 10.296 Q 98.976 8.64 98.976 5.472 Q 98.976 3.648 99.93599999999999 2.3040000000000003 Q 100.8 1.104 102.47999999999999 0.28800000000000003 Q 102 0.096 101.616 -0.096 Q 100.848 -0.624 100.536 -1.3920000000000001 Q 100.22399999999999 -2.16 100.22399999999999 -3.2640000000000002 Q 100.22399999999999 -4.848 101.136 -6.336 Q 101.80799999999999 -7.44 102.768 -8.352 L 102.384 -8.64 Q 101.184 -9.6 100.464 -11.064 Q 99.744 -12.528 99.744 -14.448 Q 99.744 -16.080000000000002 100.29599999999999 -17.544 Q 100.848 -19.008 101.928 -20.088 Q 103.008 -21.168 104.616 -21.792 Q 106.22399999999999 -22.416 108.384 -22.416 M 107.328 0.8160000000000001 Q 105.792 0.8160000000000001 104.68799999999999 0.72 Q 103.872 1.44 103.536 2.208 Q 103.104 3.168 103.104 4.464 Q 103.104 6.912 104.304 8.16 Q 105.50399999999999 9.408 108.47999999999999 9.408 Q 110.064 9.408 111.312 8.976 Q 112.56 8.544 113.448 7.824 Q 114.336 7.104 114.792 6.144 Q 115.24799999999999 5.184 115.24799999999999 4.176 Q 115.24799999999999 3.2640000000000002 114.93599999999999 2.616 Q 114.624 1.968 113.75999999999999 1.584 Q 112.896 1.2 111.336 1.008 Q 109.776 0.8160000000000001 107.328 0.8160000000000001 M 107.904 -20.256 Q 106.94399999999999 -20.256 106.24799999999999 -19.824 Q 105.55199999999999 -19.392 105.072 -18.672 Q 104.592 -17.952 104.37599999999999 -17.016000000000002 Q 104.16 -16.080000000000002 104.16 -15.072000000000001 Q 104.16 -12.048 105.45599999999999 -10.464 Q 106.752 -8.88 109.056 -8.88 Q 110.64 -8.88 111.648 -10.176 Q 112.65599999999999 -11.472 112.65599999999999 -14.016 Q 112.65599999999999 -15.312000000000001 112.344 -16.44 Q 112.032 -17.568 111.408 -18.408 Q 110.78399999999999 -19.248 109.92 -19.752 Q 109.056 -20.256 107.904 -20.256 Z M 131.28 -10.704 Q 129.696 -10.656 128.208 -10.56 Q 128.256 -9.504 128.448 -8.496 Q 128.784 -6.768 129.576 -5.376 Q 130.368 -3.984 131.712 -3.12 Q 133.056 -2.2560000000000002 135.168 -2.2560000000000002 Q 136.752 -2.2560000000000002 138.288 -2.952 Q 139.824 -3.648 141.024 -5.04 Q 141.40800000000002 -4.8 141.744 -4.368 Q 142.08 -3.936 142.176 -3.552 Q 140.496 -1.3920000000000001 138.38400000000001 -0.48 Q 136.272 0.432 133.632 0.432 Q 131.088 0.432 129.168 -0.48 Q 127.248 -1.3920000000000001 125.976 -2.928 Q 124.70400000000001 -4.464 124.08 -6.5520000000000005 Q 123.456 -8.64 123.456 -10.992 Q 123.456 -13.296000000000001 124.152 -15.36 Q 124.848 -17.424 126.12 -19.008 Q 127.392 -20.592 129.24 -21.504 Q 131.088 -22.416 133.392 -22.416 Q 135.744 -22.416 137.376 -21.624 Q 139.008 -20.832 140.064 -19.488 Q 141.12 -18.144000000000002 141.672 -16.344 Q 142.224 -14.544 142.368 -12.48 Q 142.176 -11.52 141.648 -10.848 L 139.2 -10.848 Q 137.568 -10.848 135.528 -10.824 Q 133.488 -10.8 131.28 -10.704 M 128.544 -15.936 Q 128.256 -14.736 128.16 -13.008000000000001 L 137.376 -13.008000000000001 Q 137.376 -16.176000000000002 136.224 -18.144000000000002 Q 135.072 -20.112000000000002 132.96 -20.112000000000002 Q 132.096 -20.112000000000002 131.232 -19.752 Q 130.368 -19.392 129.672 -18.456 Q 128.976 -17.52 128.544 -15.936 Z" transform="translate(300 352)" fill="rgb(0, 0, 0)" stroke="none"/><path d="M 17.712 -32.88 Q 20.736 -32.88 23.208000000000002 -32.256 Q 25.68 -31.632 28.368000000000002 -30.384 Q 27.984 -28.704 27.912 -26.832 Q 27.84 -24.96 27.84 -22.944 Q 27.216 -22.704 26.64 -22.608 Q 26.064 -22.512 25.296 -22.512 Q 25.2 -25.056 24.672 -26.688 Q 24.144000000000002 -28.32 23.208000000000002 -29.256 Q 22.272000000000002 -30.192 20.976 -30.552 Q 19.68 -30.912 18.096 -30.912 Q 15.072000000000001 -30.912 12.912 -29.808 Q 10.752 -28.704 9.384 -26.856 Q 8.016 -25.008 7.368 -22.632 Q 6.72 -20.256 6.72 -17.76 Q 6.72 -14.544 7.5600000000000005 -11.76 Q 8.4 -8.976 9.96 -6.912 Q 11.52 -4.848 13.8 -3.672 Q 16.080000000000002 -2.496 18.96 -2.496 Q 21.264 -2.496 23.664 -3.2640000000000002 Q 26.064 -4.032 28.080000000000002 -5.328 Q 28.368000000000002 -5.088 28.632 -4.632 Q 28.896 -4.176 28.944 -3.84 Q 27.504 -2.736 26.136 -1.944 Q 24.768 -1.1520000000000001 23.328 -0.624 Q 21.888 -0.096 20.328 0.168 Q 18.768 0.432 16.944 0.432 Q 13.584 0.432 10.776 -0.792 Q 7.968 -2.016 5.952 -4.248 Q 3.936 -6.48 2.8080000000000003 -9.6 Q 1.68 -12.72 1.68 -16.464 Q 1.68 -20.592 3.048 -23.664 Q 4.416 -26.736 6.648000000000001 -28.8 Q 8.88 -30.864 11.76 -31.872 Q 14.64 -32.88 17.712 -32.88 Z M 46.032000000000004 -10.896 Q 44.784 -10.752 43.44 -10.488 Q 42.096000000000004 -10.224 40.992000000000004 -9.696 Q 39.888000000000005 -9.168000000000001 39.144 -8.232 Q 38.4 -7.296 38.4 -5.712 Q 38.4 -3.936 39.264 -3.12 Q 40.128 -2.3040000000000003 41.232 -2.3040000000000003 Q 42 -2.3040000000000003 42.84 -2.688 Q 43.68 -3.072 44.400000000000006 -3.888 Q 45.120000000000005 -4.704 45.576 -5.976 Q 46.032000000000004 -7.248 46.032000000000004 -9.072000000000001 L 46.032000000000004 -10.896 M 50.352000000000004 -7.152 Q 50.352000000000004 -4.848 50.856 -4.08 Q 51.36 -3.3120000000000003 53.088 -3.3120000000000003 Q 53.088 -2.7840000000000003 53.016000000000005 -2.136 Q 52.944 -1.488 52.752 -1.056 Q 51.504000000000005 -0.864 50.088 -0.456 Q 48.672 -0.048 47.664 0.432 Q 47.184 0.24 46.824 -0.28800000000000003 Q 46.464 -0.8160000000000001 46.464 -1.92 Q 46.464 -2.64 46.512 -3.12 Q 46.56 -3.6 46.56 -3.936 Q 46.368 -3.3120000000000003 46.008 -2.688 Q 45.648 -2.064 44.784 -1.296 Q 43.968 -0.5760000000000001 42.792 -0.12 Q 41.616 0.336 39.984 0.336 Q 36.864000000000004 0.336 35.304 -1.008 Q 33.744 -2.352 33.744 -4.752 Q 33.744 -7.104 35.112 -8.568 Q 36.480000000000004 -10.032 38.424 -10.92 Q 40.368 -11.808 42.456 -12.216000000000001 Q 44.544000000000004 -12.624 46.032000000000004 -12.864 Q 46.032000000000004 -14.352 45.984 -15.312000000000001 Q 45.936 -16.272000000000002 45.84 -16.92 Q 45.744 -17.568 45.528000000000006 -18 Q 45.312 -18.432000000000002 45.024 -18.816 Q 43.872 -20.256 41.952 -20.256 Q 40.848 -20.256 40.08 -19.68 Q 39.312 -19.104 38.808 -18.264 Q 38.304 -17.424 38.088 -16.464 Q 37.872 -15.504 37.824 -14.688 Q 37.296 -14.688 36.504000000000005 -14.76 Q 35.712 -14.832 35.328 -15.024000000000001 Q 35.424 -16.224 35.376000000000005 -17.688 Q 35.328 -19.152 35.088 -20.256 Q 37.008 -21.216 39.120000000000005 -21.816 Q 41.232 -22.416 43.488 -22.416 Q 45.120000000000005 -22.416 46.272000000000006 -21.912 Q 47.42400000000001 -21.408 48.336 -20.544 Q 48.96 -19.92 49.344 -19.2 Q 49.728 -18.48 49.944 -17.496 Q 50.16 -16.512 50.256 -15.264000000000001 Q 50.352000000000004 -14.016 50.352000000000004 -12.288 L 50.352000000000004 -7.152 Z M 56.688 -20.784 Q 57.312000000000005 -20.832 58.17600000000001 -20.976 Q 59.040000000000006 -21.12 59.928000000000004 -21.36 Q 60.816 -21.6 61.608000000000004 -21.864 Q 62.400000000000006 -22.128 62.88000000000001 -22.416 Q 63.312000000000005 -22.272000000000002 63.62400000000001 -21.84 Q 63.93600000000001 -21.408 63.93600000000001 -20.496 Q 63.93600000000001 -19.68 63.84 -18.672 Q 63.84 -18.192 63.74400000000001 -17.472 Q 63.93600000000001 -17.904 64.03200000000001 -18.144000000000002 Q 64.36800000000001 -18.768 64.512 -18.96 Q 64.896 -19.536 65.54400000000001 -20.136 Q 66.19200000000001 -20.736 67.05600000000001 -21.240000000000002 Q 67.92 -21.744 69.024 -22.080000000000002 Q 70.128 -22.416 71.376 -22.416 Q 73.39200000000001 -22.416 75.072 -21.504 Q 76.75200000000001 -20.592 77.52000000000001 -18.384 Q 77.664 -17.904 77.712 -17.184 Q 77.85600000000001 -17.616 78 -17.904 Q 78.24000000000001 -18.336000000000002 78.528 -18.72 Q 78.912 -19.296 79.56 -19.896 Q 80.208 -20.496 81.096 -21 Q 81.98400000000001 -21.504 83.06400000000001 -21.84 Q 84.144 -22.176000000000002 85.39200000000001 -22.176000000000002 Q 86.736 -22.176000000000002 87.96000000000001 -21.768 Q 89.184 -21.36 90.12 -20.448 Q 91.05600000000001 -19.536 91.608 -18.048000000000002 Q 92.16 -16.56 92.16 -14.352 L 92.16 -6.096 Q 92.16 -4.848 92.328 -4.056 Q 92.49600000000001 -3.2640000000000002 92.85600000000001 -2.8080000000000003 Q 93.21600000000001 -2.352 93.768 -2.16 Q 94.32000000000001 -1.968 95.04 -1.92 Q 95.184 -1.488 95.232 -1.008 Q 95.28 -0.528 95.28 0.14400000000000002 Q 94.17600000000002 0.048 92.83200000000001 0.024 Q 91.488 0 90.048 0 Q 88.608 0 87.072 0.024 Q 85.536 0.048 84.33600000000001 0.14400000000000002 Q 84.33600000000001 -1.248 84.57600000000001 -1.92 Q 86.49600000000001 -2.016 87.19200000000001 -2.856 Q 87.888 -3.696 87.888 -6.096 L 87.888 -13.392 Q 87.888 -15.072000000000001 87.552 -16.2 Q 87.21600000000001 -17.328 86.64000000000001 -18 Q 86.06400000000001 -18.672 85.248 -18.96 Q 84.432 -19.248 83.47200000000001 -19.248 Q 82.56 -19.248 81.60000000000001 -18.816 Q 80.64000000000001 -18.384 79.87200000000001 -17.424 Q 79.10400000000001 -16.464 78.62400000000001 -14.952 Q 78.144 -13.44 78.144 -11.232000000000001 L 78.144 -6.096 Q 78.144 -4.848 78.33600000000001 -4.056 Q 78.528 -3.2640000000000002 78.912 -2.8080000000000003 Q 79.296 -2.352 79.944 -2.16 Q 80.59200000000001 -1.968 81.504 -1.92 Q 81.64800000000001 -1.488 81.696 -1.008 Q 81.744 -0.528 81.744 0.14400000000000002 Q 80.49600000000001 0.048 78.96000000000001 0.024 Q 77.424 0 76.03200000000001 0 Q 74.64000000000001 0 73.12800000000001 0.024 Q 71.61600000000001 0.048 70.32000000000001 0.14400000000000002 Q 70.32000000000001 -1.248 70.56 -1.92 Q 72.48 -2.016 73.176 -2.856 Q 73.87200000000001 -3.696 73.87200000000001 -6.096 L 73.87200000000001 -13.632 Q 73.87200000000001 -15.312000000000001 73.536 -16.44 Q 73.2 -17.568 72.62400000000001 -18.240000000000002 Q 72.048 -18.912 71.232 -19.2 Q 70.41600000000001 -19.488 69.456 -19.488 Q 68.54400000000001 -19.488 67.584 -19.056 Q 66.62400000000001 -18.624 65.85600000000001 -17.664 Q 65.08800000000001 -16.704 64.608 -15.192 Q 64.128 -13.68 64.128 -11.472 L 64.128 -6.096 Q 64.128 -3.696 64.84800000000001 -2.856 Q 65.56800000000001 -2.016 67.488 -1.92 Q 67.632 -1.488 67.68 -1.008 Q 67.72800000000001 -0.528 67.72800000000001 0.14400000000000002 Q 66.48 0.048 64.872 0.024 Q 63.26400000000001 0 62.016000000000005 0 Q 60.76800000000001 0 59.11200000000001 0.024 Q 57.456 0.048 56.30400000000001 0.14400000000000002 Q 56.30400000000001 -1.248 56.544000000000004 -1.92 Q 58.464000000000006 -2.016 59.160000000000004 -2.856 Q 59.85600000000001 -3.696 59.85600000000001 -6.096 L 59.85600000000001 -15.6 Q 59.85600000000001 -16.464 59.736000000000004 -17.088 Q 59.61600000000001 -17.712 59.232000000000006 -18.12 Q 58.848000000000006 -18.528 58.15200000000001 -18.744 Q 57.456 -18.96 56.25600000000001 -19.008 Q 56.25600000000001 -19.536 56.352000000000004 -19.968 Q 56.44800000000001 -20.400000000000002 56.688 -20.784 Z M 110.54400000000001 0.432 Q 109.15200000000002 0.432 108.144 0.192 Q 107.424 0 106.56 -0.192 L 106.56 5.136 Q 106.608 6.5280000000000005 106.87200000000001 7.368 Q 107.13600000000001 8.208 107.66400000000002 8.712 Q 108.19200000000001 9.216000000000001 108.96000000000001 9.432 Q 109.72800000000001 9.648 110.83200000000001 9.696 Q 111.072 10.368 111.072 11.76 Q 109.968 11.664 108.33600000000001 11.64 Q 106.70400000000001 11.616 105.024 11.616 L 103.248 11.616 Q 102.33600000000001 11.616 101.47200000000001 11.64 Q 100.608 11.664 99.888 11.688 Q 99.168 11.712 98.688 11.76 Q 98.688 10.368 98.92800000000001 9.696 Q 100.84800000000001 9.6 101.54400000000001 8.76 Q 102.24000000000001 7.92 102.24000000000001 5.5200000000000005 L 102.24000000000001 -15.6 Q 102.24000000000001 -16.464 102.12 -17.088 Q 102.00000000000001 -17.712 101.61600000000001 -18.12 Q 101.23200000000001 -18.528 100.536 -18.744 Q 99.84 -18.96 98.64000000000001 -19.008 Q 98.64000000000001 -19.536 98.736 -19.968 Q 98.83200000000001 -20.400000000000002 99.072 -20.784 Q 99.792 -20.832 100.68 -21 Q 101.56800000000001 -21.168 102.456 -21.384 Q 103.34400000000001 -21.6 104.13600000000001 -21.864 Q 104.92800000000001 -22.128 105.504 -22.416 Q 105.936 -22.272000000000002 106.248 -21.816 Q 106.56 -21.36 106.56 -20.304000000000002 Q 106.56 -19.2 106.224 -18.192 Q 106.03200000000001 -17.568 105.74400000000001 -16.704 L 106.224 -17.664 Q 106.70400000000001 -18.48 106.944 -18.864 Q 107.28 -19.392 107.88000000000001 -20.016000000000002 Q 108.48 -20.64 109.34400000000001 -21.168 Q 110.20800000000001 -21.696 111.26400000000001 -22.056 Q 112.32000000000001 -22.416 113.52000000000001 -22.416 Q 117.744 -22.416 120.12 -19.92 Q 122.49600000000001 -17.424 122.49600000000001 -12.192 Q 122.49600000000001 -9.504 121.632 -7.2 Q 120.768 -4.896 119.20800000000001 -3.192 Q 117.64800000000001 -1.488 115.44000000000001 -0.528 Q 113.23200000000001 0.432 110.54400000000001 0.432 M 107.04 -14.448 Q 106.608 -12.96 106.56 -10.944 L 106.56 -3.456 Q 107.23200000000001 -2.88 107.95200000000001 -2.448 Q 109.10400000000001 -1.776 110.784 -1.776 Q 111.792 -1.776 112.992 -2.16 Q 114.19200000000001 -2.544 115.248 -3.6 Q 116.304 -4.656 117.024 -6.456 Q 117.744 -8.256 117.744 -11.136000000000001 Q 117.744 -14.928 116.20800000000001 -17.16 Q 114.67200000000001 -19.392 112.36800000000001 -19.392 Q 111.31200000000001 -19.392 110.28 -18.912 Q 109.248 -18.432000000000002 108.40800000000002 -17.328 Q 107.56800000000001 -16.224 107.04 -14.448 Z" transform="translate(300 400)" fill="rgb(0, 0, 0)" stroke="none"/><rect x="210" y="250" width="40" height="150" fill="rgb(0, 0, 0)" stroke="rgb(0, 0, 0)"/><polygon points="0 0 -50 150 50 150" transform="translate(230 100)" fill="rgb(0, 0, 0)" stroke="rgb(0, 0, 0)"/><polygon points="0 0 -55 160 55 160" transform="translate(230 120)" fill="rgb(0, 0, 0)" stroke="rgb(0, 0, 0)"/><polygon points="0 0 -60 170 60 170" transform="translate(230 140)" fill="rgb(0, 0, 0)" stroke="rgb(0, 0, 0)"/><polygon points="0 0 -65 180 65 180" transform="translate(230 160)" fill="rgb(0, 0, 0)" stroke="rgb(0, 0, 0)"/><polygon points="0 0 -70 190 70 190" transform="translate(230 180)" fill="rgb(0, 0, 0)" stroke="rgb(0, 0, 0)"/></svg>