<?xml version="1.0" standalone="no"?><!DOCTYPE svg PUBLIC "-//W3C//DTD SVG 1.1//EN" "http://www.w3.org/Graphics/SVG/1.1/DTD/svg11.dtd"><svg width="600" height="600" version="1.1" xmlns="http://www.w3.org/2000/svg" xmlns:xlink="http://www.w3.org/1999/xlink"><defs xmlns="http://www.w3.org/1999/xhtml"><style type="text/css"><![CDATA[
.inline { float: left; }
#buttons { margin-left: 15px; }
button { margin: 5px; width: 200px; border: none; color: rgb(255, 255, 255); padding: 15px 32px; text-align: center; text-decoration: none; display: inline-block; font-size: 16px; border-radius: 4px; background-color: rgb(0, 0, 0); }
#download { width: 600px; }
p { width: 150px; font-size: 18px; padding-right: 20px; padding-left: 20px; padding-top: 3px; text-align: center; }
body { background-color: rgb(234, 234, 234); }
#canvas svg { box-shadow: rgba(0, 0, 0, 0.0588235) 0px 3px 2px 0px, rgba(0, 0, 0, 0.0196078) -1px -1px 1px 0px inset; border-width: 1px; border-style: solid; border-color: rgb(226, 226, 226) rgb(226, 226, 226) rgb(206, 206, 206); background-color: rgb(255, 255, 255); }
#temp1 { background-color: rgb(0, 0, 255); }]]></style></defs><polygon points="0 0 200 200 -200 200" transform="translate(300 200)" fill="none" stroke="rgb(0, 0, 0)" stroke-width="5"/><polygon points="0 0 200 200 -200 200" transform="rotate(45 300 300) translate(300 200)" fill="none" stroke="rgb(0, 0, 0)" stroke-width="5"/><polygon points="0 0 200 200 -200 200" transform="rotate(90 300 300) translate(300 200)" fill="none" stroke="rgb(0, 0, 0)" stroke-width="5"/><polygon points="0 0 200 200 -200 200" transform="rotate(135 300 300) translate(300 200)" fill="none" stroke="rgb(0, 0, 0)" stroke-width="5"/><polygon points="0 0 200 200 -200 200" transform="rotate(180 300 300) translate(300 200)" fill="none" stroke="rgb(0, 0, 0)" stroke-width="5"/><polygon points="0 0 200 200 -200 200" transform="rotate(225 300 300) translate(300 200)" fill="none" stroke="rgb(0, 0, 0)" stroke-width="5"/><polygon points="0 0 200 200 -200 200" transform="rotate(270 300 300) translate(300 200)" fill="none" stroke="rgb(0, 0, 0)" stroke-width="5"/><polygon points="0 0 200 200 -200 200" transform="rotate(315 300 300) translate(300 200)" fill="none" stroke="rgb(0, 0, 0)" stroke-width="5"/></svg>