<?xml version="1.0" standalone="no"?><!DOCTYPE svg PUBLIC "-//W3C//DTD SVG 1.1//EN" "http://www.w3.org/Graphics/SVG/1.1/DTD/svg11.dtd"><svg width="800" height="800" version="1.1" xmlns="http://www.w3.org/2000/svg" xmlns:xlink="http://www.w3.org/1999/xlink"><defs xmlns="http://www.w3.org/1999/xhtml"><style type="text/css"><![CDATA[
body { background-color: rgb(234, 234, 234); }
#canvas svg { box-shadow: rgba(0, 0, 0, 0.0588235) 0px 3px 2px 0px, rgba(0, 0, 0, 0.0196078) -1px -1px 1px 0px inset; border-width: 1px; border-style: solid; border-color: rgb(226, 226, 226) rgb(226, 226, 226) rgb(206, 206, 206); background-color: white; }]]></style></defs><rect x="0" y="0" width="800" height="800" fill="rgb(0, 0, 0)" stroke="none"/><polygon points="0 0 601 0 601 161" transform="translate(200 -1)" fill="rgb(255, 255, 255)" stroke="rgb(0, 0, 0)"/><path d="M 0 0 Q 10 5 0 300 Q -10 5 0 0 Z M 0 15 Q 2 23 0 31 Q -2 23 0 15" transform="rotate(-20 300 200) translate(300 200)" fill="rgb(255, 255, 255)" stroke="rgb(0, 0, 0)" fill-rule="evenodd"/><path d="M 0 0 C 50 -20 150 30 130 70 C 100 130 70 100 20 130 C -20 160 -70 130 -120 100 C -240 20 -40 20 0 0" transform="translate(400 600)" fill="rgb(255, 255, 255)" stroke="none"/><path d="M 0 0 C 45 -18 135 27 117 63 C 90 117 63 90 18 117 C -18 144 -63 117 -108 90 C -216 18 -36 18 0 0" transform="translate(400 605)" fill="rgb(0, 0, 0)" stroke="none"/><path d="M 0 0 C 44.5 -17.8 133.5 26.7 115.7 62.300000000000004 C 89 115.7 62.300000000000004 89 17.8 115.7 C -17.8 142.4 -62.300000000000004 115.7 -106.8 89 C -213.6 17.8 -35.6 17.8 0 0" transform="translate(400 606)" fill="rgb(255, 255, 255)" stroke="none"/><path d="M 0 0 C 37.5 -15 112.5 22.5 97.5 52.5 C 75 97.5 52.5 75 15 97.5 C -15 120 -52.5 97.5 -90 75 C -180 15 -30 15 0 0" transform="translate(400 615)" fill="rgb(0, 0, 0)" stroke="none"/><path d="M 0 0 C 37 -14.8 111 22.2 96.2 51.8 C 74 96.2 51.8 74 14.8 96.2 C -14.8 118.4 -51.8 96.2 -88.8 74 C -177.6 14.8 -29.6 14.8 0 0" transform="translate(400 616)" fill="rgb(255, 255, 255)" stroke="none"/><path d="M 0 0 C 25 -10 75 15 65 35 C 50 65 35 50 10 65 C -10 80 -35 65 -60 50 C -120 10 -20 10 0 0" transform="translate(400 628)" fill="rgb(0, 0, 0)" stroke="none"/><path d="M 0 0 C 24.5 -9.8 73.5 14.7 63.699999999999996 34.3 C 49 63.699999999999996 34.3 49 9.8 63.699999999999996 C -9.8 78.4 -34.3 63.699999999999996 -58.8 49 C -117.6 9.8 -19.6 9.8 0 0" transform="translate(400 629)" fill="rgb(255, 255, 255)" stroke="none"/><path d="M 0 0 C 10 -4 30 6 26 14 C 20 26 14 20 4 26 C -4 32 -14 26 -24 20 C -48 4 -8 4 0 0" transform="translate(400 644)" fill="rgb(0, 0, 0)" stroke="none"/><path d="M 0 0 C 9.5 -3.8 28.5 5.7 24.7 13.3 C 19 24.7 13.3 19 3.8 24.7 C -3.8 30.4 -13.3 24.7 -22.8 19 C -45.6 3.8 -7.6 3.8 0 0" transform="translate(400 645)" fill="rgb(255, 255, 255)" stroke="none"/><path d="M 0 0 C 10 7.5 12.5 25 12.5 35 Q 10 50 0 50 Q -10 50 -12.5 35 C -12.5 25 -10 7.5 0 0" transform="translate(400 575)" fill="rgb(255, 255, 255)" stroke="rgb(0, 0, 0)" stroke-width="0.4"/></svg>