<?xml version="1.0" standalone="no"?><!DOCTYPE svg PUBLIC "-//W3C//DTD SVG 1.1//EN" "http://www.w3.org/Graphics/SVG/1.1/DTD/svg11.dtd"><svg width="850" height="1100" version="1.1" xmlns="http://www.w3.org/2000/svg" xmlns:xlink="http://www.w3.org/1999/xlink"><defs xmlns="http://www.w3.org/1999/xhtml"><style type="text/css"><![CDATA[
body { background-color: rgb(234, 234, 234); }
#canvas svg { box-shadow: rgba(0, 0, 0, 0.0588235) 0px 3px 2px 0px, rgba(0, 0, 0, 0.0196078) -1px -1px 1px 0px inset; border-width: 1px; border-style: solid; border-color: rgb(226, 226, 226) rgb(226, 226, 226) rgb(206, 206, 206); background-color: white; }]]></style></defs><rect x="0" y="0" width="850" height="1100" fill="rgb(0, 0, 0)" stroke="rgb(0, 0, 0)"/><ellipse cx="80" cy="1050" rx="300" ry="300" fill="rgb(255, 255, 255)" stroke="rgb(0, 0, 0)"/><g transform="rotate(-20 80 900) translate(80 900)"><ellipse cx="-1500" cy="-1500" rx="3.75" ry="3.75" fill="rgb(0, 0, 0)" stroke="none"/><rect x="-1500" y="-1500" width="9" height="3" fill="rgb(0, 0, 0)" stroke="none"/><ellipse cx="22.5" cy="0" rx="3.75" ry="3.75" fill="rgb(0, 0, 0)" stroke="none"/><ellipse cx="32.25" cy="0" rx="3.75" ry="3.75" fill="rgb(0, 0, 0)" stroke="none"/><ellipse cx="48.75" cy="0" rx="3.75" ry="3.75" fill="rgb(0, 0, 0)" stroke="none"/><rect x="54" y="-1.5" width="9" height="3" fill="rgb(0, 0, 0)" stroke="none"/><rect x="67.5" y="-1.5" width="9" height="3" fill="rgb(0, 0, 0)" stroke="none"/><rect x="78" y="-1.5" width="9" height="3" fill="rgb(0, 0, 0)" stroke="none"/><ellipse cx="0" cy="10.5" rx="3.75" ry="3.75" fill="rgb(0, 0, 0)" stroke="none"/><rect x="5.25" y="9" width="9" height="3" fill="rgb(0, 0, 0)" stroke="none"/><rect x="18" y="9" width="9" height="3" fill="rgb(0, 0, 0)" stroke="none"/><ellipse cx="32.25" cy="10.5" rx="3.75" ry="3.75" fill="rgb(0, 0, 0)" stroke="none"/><ellipse cx="40.5" cy="10.5" rx="3.75" ry="3.75" fill="rgb(0, 0, 0)" stroke="none"/><ellipse cx="51" cy="10.5" rx="3.75" ry="3.75" fill="rgb(0, 0, 0)" stroke="none"/><ellipse cx="59.25" cy="10.5" rx="3.75" ry="3.75" fill="rgb(0, 0, 0)" stroke="none"/><ellipse cx="69.75" cy="10.5" rx="3.75" ry="3.75" fill="rgb(0, 0, 0)" stroke="none"/><ellipse cx="78" cy="10.5" rx="3.75" ry="3.75" fill="rgb(0, 0, 0)" stroke="none"/><ellipse cx="86.25" cy="10.5" rx="3.75" ry="3.75" fill="rgb(0, 0, 0)" stroke="none"/><rect x="91.5" y="9" width="9" height="3" fill="rgb(0, 0, 0)" stroke="none"/><ellipse cx="108" cy="10.5" rx="3.75" ry="3.75" fill="rgb(0, 0, 0)" stroke="none"/></g><g transform="rotate(50 860 200) translate(860 200)"><rect x="0" y="0" width="50" height="150" fill="rgb(255, 255, 255)" stroke="none"/><polygon points="0 0 50 0 25 -36" transform="translate(0 1)" fill="rgb(255, 255, 255)" stroke="none"/><polygon points="0 0 0 40 30 60" transform="translate(50 100)" fill="rgb(255, 255, 255)" stroke="rgb(255, 255, 255)"/><polygon points="0 0 0 40 -30 60" transform="translate(0 100)" fill="rgb(255, 255, 255)" stroke="rgb(255, 255, 255)"/><polygon points="0 0 -15 30 15 30" transform="translate(12 130)" fill="rgb(255, 255, 255)" stroke="none"/><polygon points="0 0 -15 30 15 30" transform="translate(38 130)" fill="rgb(255, 255, 255)" stroke="none"/></g></svg>