<?xml version="1.0" standalone="no"?><!DOCTYPE svg PUBLIC "-//W3C//DTD SVG 1.1//EN" "http://www.w3.org/Graphics/SVG/1.1/DTD/svg11.dtd"><svg width="800" height="1200" version="1.1" xmlns="http://www.w3.org/2000/svg" xmlns:xlink="http://www.w3.org/1999/xlink"><defs xmlns="http://www.w3.org/1999/xhtml"><style type="text/css"><![CDATA[
body { background-color: rgb(234, 234, 234); }
#canvas svg { background-color: white; box-shadow: 0px 3px 2px 0px rgba(0, 0, 0, 0.06), -1px -1px 1px 0px rgba(0, 0, 0, 0.02) inset; border-width: 1px; border-style: solid; border-color: rgb(226, 226, 226) rgb(226, 226, 226) rgb(206, 206, 206); -moz-border-top-colors: none; -moz-border-right-colors: none; -moz-border-bottom-colors: none; -moz-border-left-colors: none; border-image: none; }]]></style></defs><rect x="-1" y="-1" width="802" height="1202" fill="rgb(247, 240, 224)" stroke="none"/><g transform="translate(10 10)"><g><g transform="translate(126.66666666666667 58.5)"><ellipse cx="0" cy="0" rx="16.25" ry="16.25" fill="rgb(30, 30, 30)" stroke="none"/><path d="M 0 22.5 L 15 22.5 Q 30 22.5 37.5 47.5 L 48 82.5 L 37 87.5 L 25 47.5 L 20 47.5 L 41 122.5 L -41 122.5 L -20 47.5 L -25 47.5 L -37 87.5 L -48 82.5 L -37.5 47.5 Q -30 22.5 -15 22.5 Z" fill="rgb(30, 30, 30)" stroke="none"/><ellipse cx="42.5" cy="85" rx="6.03" ry="6.03" fill="rgb(30, 30, 30)" stroke="none"/><ellipse cx="-42.5" cy="85" rx="6.03" ry="6.03" fill="rgb(30, 30, 30)" stroke="none"/><rect x="2.5" y="120" width="15" height="57.5" fill="rgb(30, 30, 30)" stroke="none"/><rect x="-17.5" y="120" width="15" height="57.5" fill="rgb(30, 30, 30)" stroke="none"/><ellipse cx="-10" cy="177.5" rx="7.5" ry="7.5" fill="rgb(30, 30, 30)" stroke="none"/><ellipse cx="10" cy="177.5" rx="7.5" ry="7.5" fill="rgb(30, 30, 30)" stroke="none"/></g><g transform="translate(127 144)"><ellipse cx="0" cy="0" rx="95" ry="95" fill="none" stroke="rgb(230, 0, 230)" stroke-width="35"/><line x1="-56.22220896732577" y1="-76.57717165601217" x2="56.22220896732577" y2="76.57717165601217" fill="rgb(128, 128, 128)" stroke="rgb(230, 0, 230)" stroke-width="35"/></g></g><g transform="translate(263.33333333333337 0)"><g transform="translate(126.66666666666667 58.5)"><ellipse cx="0" cy="0" rx="16.25" ry="16.25" fill="rgb(30, 30, 30)" stroke="none"/><path d="M 0 22.5 L 15 22.5 Q 30 22.5 37.5 47.5 L 48 82.5 L 37 87.5 L 25 47.5 L 20 47.5 L 41 122.5 L -41 122.5 L -20 47.5 L -25 47.5 L -37 87.5 L -48 82.5 L -37.5 47.5 Q -30 22.5 -15 22.5 Z" fill="rgb(30, 30, 30)" stroke="none"/><ellipse cx="42.5" cy="85" rx="6.03" ry="6.03" fill="rgb(30, 30, 30)" stroke="none"/><ellipse cx="-42.5" cy="85" rx="6.03" ry="6.03" fill="rgb(30, 30, 30)" stroke="none"/><rect x="2.5" y="120" width="15" height="57.5" fill="rgb(30, 30, 30)" stroke="none"/><rect x="-17.5" y="120" width="15" height="57.5" fill="rgb(30, 30, 30)" stroke="none"/><ellipse cx="-10" cy="177.5" rx="7.5" ry="7.5" fill="rgb(30, 30, 30)" stroke="none"/><ellipse cx="10" cy="177.5" rx="7.5" ry="7.5" fill="rgb(30, 30, 30)" stroke="none"/></g></g><g transform="translate(526.6666666666667 0)"><g transform="translate(126.66666666666667 58.5)"><ellipse cx="0" cy="0" rx="16.25" ry="16.25" fill="rgb(30, 30, 30)" stroke="none"/><path d="M 0 22.5 L 15 22.5 Q 30 22.5 37.5 47.5 L 48 82.5 L 37 87.5 L 25 47.5 L 20 47.5 L 41 122.5 L -41 122.5 L -20 47.5 L -25 47.5 L -37 87.5 L -48 82.5 L -37.5 47.5 Q -30 22.5 -15 22.5 Z" fill="rgb(30, 30, 30)" stroke="none"/><ellipse cx="42.5" cy="85" rx="6.03" ry="6.03" fill="rgb(30, 30, 30)" stroke="none"/><ellipse cx="-42.5" cy="85" rx="6.03" ry="6.03" fill="rgb(30, 30, 30)" stroke="none"/><rect x="2.5" y="120" width="15" height="57.5" fill="rgb(30, 30, 30)" stroke="none"/><rect x="-17.5" y="120" width="15" height="57.5" fill="rgb(30, 30, 30)" stroke="none"/><ellipse cx="-10" cy="177.5" rx="7.5" ry="7.5" fill="rgb(30, 30, 30)" stroke="none"/><ellipse cx="10" cy="177.5" rx="7.5" ry="7.5" fill="rgb(30, 30, 30)" stroke="none"/></g></g><g transform="translate(0 297.5)"><g transform="translate(126.66666666666667 58.5)"><ellipse cx="0" cy="0" rx="16.25" ry="16.25" fill="rgb(30, 30, 30)" stroke="none"/><path d="M 0 22.5 L 15 22.5 Q 30 22.5 37.5 47.5 L 48 82.5 L 37 87.5 L 25 47.5 L 20 47.5 L 41 122.5 L -41 122.5 L -20 47.5 L -25 47.5 L -37 87.5 L -48 82.5 L -37.5 47.5 Q -30 22.5 -15 22.5 Z" fill="rgb(30, 30, 30)" stroke="none"/><ellipse cx="42.5" cy="85" rx="6.03" ry="6.03" fill="rgb(30, 30, 30)" stroke="none"/><ellipse cx="-42.5" cy="85" rx="6.03" ry="6.03" fill="rgb(30, 30, 30)" stroke="none"/><rect x="2.5" y="120" width="15" height="57.5" fill="rgb(30, 30, 30)" stroke="none"/><rect x="-17.5" y="120" width="15" height="57.5" fill="rgb(30, 30, 30)" stroke="none"/><ellipse cx="-10" cy="177.5" rx="7.5" ry="7.5" fill="rgb(30, 30, 30)" stroke="none"/><ellipse cx="10" cy="177.5" rx="7.5" ry="7.5" fill="rgb(30, 30, 30)" stroke="none"/></g></g><g transform="translate(263.33333333333337 297.5)"><g transform="translate(126.66666666666667 58.5)"><ellipse cx="0" cy="0" rx="16.25" ry="16.25" fill="rgb(30, 30, 30)" stroke="none"/><path d="M 0 22.5 L 15 22.5 Q 30 22.5 37.5 47.5 L 48 82.5 L 37 87.5 L 25 47.5 L 20 47.5 L 41 122.5 L -41 122.5 L -20 47.5 L -25 47.5 L -37 87.5 L -48 82.5 L -37.5 47.5 Q -30 22.5 -15 22.5 Z" fill="rgb(30, 30, 30)" stroke="none"/><ellipse cx="42.5" cy="85" rx="6.03" ry="6.03" fill="rgb(30, 30, 30)" stroke="none"/><ellipse cx="-42.5" cy="85" rx="6.03" ry="6.03" fill="rgb(30, 30, 30)" stroke="none"/><rect x="2.5" y="120" width="15" height="57.5" fill="rgb(30, 30, 30)" stroke="none"/><rect x="-17.5" y="120" width="15" height="57.5" fill="rgb(30, 30, 30)" stroke="none"/><ellipse cx="-10" cy="177.5" rx="7.5" ry="7.5" fill="rgb(30, 30, 30)" stroke="none"/><ellipse cx="10" cy="177.5" rx="7.5" ry="7.5" fill="rgb(30, 30, 30)" stroke="none"/></g></g><g transform="translate(526.6666666666667 297.5)"><g transform="translate(126.66666666666667 58.5)"><ellipse cx="0" cy="0" rx="16.25" ry="16.25" fill="rgb(30, 30, 30)" stroke="none"/><path d="M 0 22.5 L 15 22.5 Q 30 22.5 37.5 47.5 L 48 82.5 L 37 87.5 L 25 47.5 L 20 47.5 L 41 122.5 L -41 122.5 L -20 47.5 L -25 47.5 L -37 87.5 L -48 82.5 L -37.5 47.5 Q -30 22.5 -15 22.5 Z" fill="rgb(30, 30, 30)" stroke="none"/><ellipse cx="42.5" cy="85" rx="6.03" ry="6.03" fill="rgb(30, 30, 30)" stroke="none"/><ellipse cx="-42.5" cy="85" rx="6.03" ry="6.03" fill="rgb(30, 30, 30)" stroke="none"/><rect x="2.5" y="120" width="15" height="57.5" fill="rgb(30, 30, 30)" stroke="none"/><rect x="-17.5" y="120" width="15" height="57.5" fill="rgb(30, 30, 30)" stroke="none"/><ellipse cx="-10" cy="177.5" rx="7.5" ry="7.5" fill="rgb(30, 30, 30)" stroke="none"/><ellipse cx="10" cy="177.5" rx="7.5" ry="7.5" fill="rgb(30, 30, 30)" stroke="none"/></g></g><g transform="translate(0 595)"><path d="M 1.52 -0.72 Q 4.4 -0.8 5.64 -2.68 Q 6.88 -4.5600000000000005 6.88 -8.88 L 6.88 -48.800000000000004 Q 6.88 -52.96 5.6000000000000005 -54.92 Q 4.32 -56.88 1.52 -56.88 L 1.52 -57.68 L 13.6 -57.68 L 39.44 -15.040000000000001 L 39.44 -48.800000000000004 Q 39.44 -53.04 38.160000000000004 -54.96 Q 36.88 -56.88 34.160000000000004 -56.88 L 34.160000000000004 -57.68 L 46.88 -57.68 L 46.96 -56.88 Q 41.52 -56.88 41.52 -48.800000000000004 L 41.52 1.2 L 8.96 -51.36 L 8.96 -8.88 Q 8.96 -0.8 14.24 -0.72 L 14.24 0 L 1.52 0 L 1.52 -0.72 Z M 51.6 -29.12 Q 51.6 -36.08 53.239999999999995 -41.6 Q 54.879999999999995 -47.12 57.92 -50.96 Q 60.96 -54.800000000000004 65.4 -56.84 Q 69.84 -58.88 75.36 -58.88 Q 80.8 -58.88 85.2 -56.76 Q 89.6 -54.64 92.68 -50.76 Q 95.75999999999999 -46.88 97.44 -41.32 Q 99.12 -35.76 99.12 -28.8 Q 99.12 -21.92 97.47999999999999 -16.4 Q 95.84 -10.88 92.72 -7.04 Q 89.6 -3.2 85.2 -1.16 Q 80.8 0.88 75.28 0.88 Q 69.84 0.88 65.48 -1.2 Q 61.12 -3.2800000000000002 58.04 -7.2 Q 54.96 -11.120000000000001 53.28 -16.68 Q 51.6 -22.240000000000002 51.6 -29.12 M 73.12 -56.64 Q 70.08 -56.64 67.56 -55.44 Q 65.03999999999999 -54.24 63.2 -52 Q 61.36 -49.76 60.32 -46.56 Q 59.28 -43.36 59.28 -39.44 L 59.28 -37.44 Q 59.28 -33.04 59.839999999999996 -28.6 Q 60.4 -24.16 61.44 -20.12 Q 62.48 -16.080000000000002 63.92 -12.6 Q 65.36 -9.120000000000001 67.12 -6.72 Q 68.96 -4.16 71.68 -2.7600000000000002 Q 74.4 -1.36 77.52 -1.36 Q 84 -1.36 87.72 -6.48 Q 91.44 -11.6 91.44 -20.56 Q 91.44 -24.96 90.84 -29.400000000000002 Q 90.24000000000001 -33.84 89.2 -37.92 Q 88.16 -42 86.72 -45.44 Q 85.28 -48.88 83.6 -51.28 Q 81.75999999999999 -53.84 79 -55.24 Q 76.24 -56.64 73.12 -56.64 Z M 100.8 -43.12 L 100.8 -57.68 L 136.96 -57.68 L 136.96 -43.12 L 136.24 -43.12 Q 134.48000000000002 -55.36 122.64 -55.68 L 122.64 -8.88 Q 122.64 -0.8 128.08 -0.72 L 128.08 0 L 109.92 0 L 109.92 -0.72 Q 112.72 -0.8 114 -2.72 Q 115.28 -4.64 115.28 -8.88 L 115.36 -55.68 Q 103.52 -55.6 101.44 -43.12 L 100.8 -43.12 Z" transform="translate(30 120)" fill="rgb(30, 30, 30)" stroke="none"/><path d="M 0.24 -43.12 L 0.24 -57.68 L 36.4 -57.68 L 36.4 -43.12 L 35.68 -43.12 Q 33.92 -55.36 22.080000000000002 -55.68 L 22.080000000000002 -8.88 Q 22.080000000000002 -0.8 27.52 -0.72 L 27.52 0 L 9.36 0 L 9.36 -0.72 Q 12.16 -0.8 13.44 -2.72 Q 14.72 -4.64 14.72 -8.88 L 14.8 -55.68 Q 2.96 -55.6 0.88 -43.12 L 0.24 -43.12 Z M 38.160000000000004 -0.72 Q 41.04 -0.8 42.36 -2.68 Q 43.68 -4.5600000000000005 43.68 -8.88 L 43.68 -48.800000000000004 Q 43.68 -56.88 38.32 -56.88 L 38.32 -57.68 L 56 -57.68 L 56 -56.88 Q 50.96 -56.88 50.96 -48.800000000000004 L 50.96 -31.76 L 74.24000000000001 -31.76 L 74.24000000000001 -48.800000000000004 Q 74.24000000000001 -56.88 69.28 -56.88 L 69.28 -57.68 L 87.03999999999999 -57.68 L 87.03999999999999 -56.88 Q 81.68 -56.88 81.68 -48.800000000000004 L 81.68 -8.88 Q 81.68 -4.5600000000000005 83 -2.68 Q 84.32 -0.8 87.12 -0.72 L 87.12 0 L 69.28 0 L 69.28 -0.72 Q 71.84 -0.8 73.08 -2.72 Q 74.32 -4.64 74.32 -8.8 L 74.32 -29.68 L 50.96 -29.68 L 50.96 -8.88 Q 50.96 -4.64 52.2 -2.72 Q 53.44 -0.8 56 -0.72 L 56 0 L 38.160000000000004 0 L 38.160000000000004 -0.72 Z M 85.68 -0.72 Q 88.88 -0.8 90.96 -2.68 Q 93.04 -4.5600000000000005 94.56 -8.88 L 112.16 -58.800000000000004 L 129.04 -8.88 Q 130.48000000000002 -4.5600000000000005 132.32 -2.72 Q 134.16 -0.88 136.96 -0.72 L 136.96 0 L 116 0 L 116 -0.72 L 116.4 -0.72 Q 118.88 -0.72 120.28 -1.8800000000000001 Q 121.68 -3.04 121.68 -5.12 Q 121.68 -6.5600000000000005 121.03999999999999 -8.88 L 118.16 -18.88 L 100.8 -18.88 L 97.6 -8.88 Q 97.2 -7.76 97.08 -6.8 Q 96.96000000000001 -5.84 96.96000000000001 -5.04 Q 96.96000000000001 -2.96 98.32 -1.84 Q 99.68 -0.72 102.16 -0.72 L 102.48 -0.72 L 102.48 0 L 85.68 0 L 85.68 -0.72 M 109.36 -45.84 L 101.6 -21.04 L 117.52 -21.04 L 109.36 -45.84 Z M 130 -43.12 L 130 -57.68 L 166.16 -57.68 L 166.16 -43.12 L 165.44 -43.12 Q 163.68 -55.36 151.84 -55.68 L 151.84 -8.88 Q 151.84 -0.8 157.28 -0.72 L 157.28 0 L 139.12 0 L 139.12 -0.72 Q 141.92 -0.8 143.2 -2.72 Q 144.48 -4.64 144.48 -8.88 L 144.56 -55.68 Q 132.72 -55.6 130.64 -43.12 L 130 -43.12 Z" transform="translate(190 120)" fill="rgb(230, 0, 230)" stroke="none"/><path d="M 1.52 -56.88 L 1.52 -57.68 L 19.6 -57.68 L 19.6 -56.88 Q 14.24 -56.88 14.24 -48.800000000000004 L 14.24 -28.88 L 21.44 -38.72 Q 22.32 -39.92 23.080000000000002 -41.08 Q 23.84 -42.24 24.560000000000002 -43.36 Q 27.2 -47.52 28.400000000000002 -49.88 Q 29.6 -52.24 29.6 -53.52 Q 29.6 -55.120000000000005 28.52 -56 Q 27.44 -56.88 25.6 -56.96 L 25.6 -57.68 L 42.88 -57.68 L 42.96 -56.96 Q 40.08 -56.160000000000004 38.12 -55.160000000000004 Q 36.160000000000004 -54.160000000000004 34.32 -52.32 Q 33.84 -51.84 33.4 -51.4 Q 32.96 -50.96 32.480000000000004 -50.32 Q 31.84 -49.6 31.32 -48.88 Q 30.8 -48.160000000000004 30.04 -47.08 Q 29.28 -46 28.12 -44.4 Q 26.96 -42.800000000000004 25.12 -40.32 L 19.92 -33.12 L 38.56 -8.88 Q 40.160000000000004 -6.8 42.04 -4.96 Q 43.92 -3.12 45.68 -2 Q 46.64 -1.36 47.4 -1.12 Q 48.160000000000004 -0.88 49.28 -0.72 L 49.2 0 L 30.32 0 L 30.32 -0.72 L 30.88 -0.72 Q 31.92 -0.72 32.64 -1.28 Q 33.36 -1.84 33.36 -2.72 Q 33.36 -3.6 32.52 -5.08 Q 31.68 -6.5600000000000005 29.84 -8.88 L 14.24 -28.48 L 14.24 -8.88 Q 14.24 -0.8 19.6 -0.72 L 19.6 0 L 1.68 0 L 1.68 -0.72 Q 4.48 -0.8 5.8 -2.72 Q 7.12 -4.64 7.12 -8.88 L 7.12 -48.800000000000004 Q 7.12 -56.88 1.52 -56.88 Z M 48.00000000000001 -0.72 Q 50.800000000000004 -0.8 52.160000000000004 -2.68 Q 53.52 -4.5600000000000005 53.52 -8.88 L 53.52 -48.800000000000004 Q 53.52 -53.120000000000005 52.2 -55 Q 50.88 -56.88 48.00000000000001 -56.88 L 48.00000000000001 -57.68 L 66.16 -57.68 L 66.16 -56.88 Q 60.64 -56.88 60.64 -48.800000000000004 L 60.64 -8.88 Q 60.64 -4.64 61.96000000000001 -2.72 Q 63.28 -0.8 66.16 -0.72 L 66.16 0 L 48.00000000000001 0 L 48.00000000000001 -0.72 Z M 69.28 -0.72 Q 72.16000000000001 -0.8 73.4 -2.68 Q 74.64 -4.5600000000000005 74.64 -8.88 L 74.64 -48.800000000000004 Q 74.64 -52.96 73.36 -54.92 Q 72.08000000000001 -56.88 69.28 -56.88 L 69.28 -57.68 L 81.36 -57.68 L 107.2 -15.040000000000001 L 107.2 -48.800000000000004 Q 107.2 -53.04 105.92000000000002 -54.96 Q 104.64000000000001 -56.88 101.92000000000002 -56.88 L 101.92000000000002 -57.68 L 114.64000000000001 -57.68 L 114.72 -56.88 Q 109.28 -56.88 109.28 -48.800000000000004 L 109.28 1.2 L 76.72 -51.36 L 76.72 -8.88 Q 76.72 -0.8 82 -0.72 L 82 0 L 69.28 0 L 69.28 -0.72 Z M 117.67999999999999 -56.88 L 117.67999999999999 -57.68 L 136.64 -57.68 Q 142.4 -57.68 146.96 -55.72 Q 151.51999999999998 -53.76 154.64 -50.120000000000005 Q 157.76 -46.480000000000004 159.44 -41.2 Q 161.12 -35.92 161.12 -29.28 Q 161.12 -15.040000000000001 153.76 -6.72 Q 150.56 -3.2 146.48 -1.6 Q 142.4 0 136.16 0 L 117.67999999999999 0 L 117.67999999999999 -0.72 Q 120.56 -0.8 121.88 -2.72 Q 123.2 -4.64 123.2 -8.88 L 123.2 -48.800000000000004 Q 123.2 -53.120000000000005 121.88 -55 Q 120.56 -56.88 117.67999999999999 -56.88 M 130.32 -55.28 L 130.32 -2.16 L 134.32 -2.16 Q 143.28 -2.16 148.16 -9.120000000000001 Q 153.04 -16.080000000000002 153.04 -29.04 Q 153.04 -41.6 148.76 -48.44 Q 144.48 -55.28 136.56 -55.28 L 130.32 -55.28 Z" transform="translate(30 210)" fill="rgb(30, 30, 30)" stroke="none"/><path d="M 3.2 -29.12 Q 3.2 -36.08 4.84 -41.6 Q 6.48 -47.12 9.52 -50.96 Q 12.56 -54.800000000000004 17 -56.84 Q 21.44 -58.88 26.96 -58.88 Q 32.4 -58.88 36.800000000000004 -56.76 Q 41.2 -54.64 44.28 -50.76 Q 47.36 -46.88 49.04 -41.32 Q 50.72 -35.76 50.72 -28.8 Q 50.72 -21.92 49.08 -16.4 Q 47.44 -10.88 44.32 -7.04 Q 41.2 -3.2 36.800000000000004 -1.16 Q 32.4 0.88 26.88 0.88 Q 21.44 0.88 17.080000000000002 -1.2 Q 12.72 -3.2800000000000002 9.64 -7.2 Q 6.5600000000000005 -11.120000000000001 4.88 -16.68 Q 3.2 -22.240000000000002 3.2 -29.12 M 24.72 -56.64 Q 21.68 -56.64 19.16 -55.44 Q 16.64 -54.24 14.8 -52 Q 12.96 -49.76 11.92 -46.56 Q 10.88 -43.36 10.88 -39.44 L 10.88 -37.44 Q 10.88 -33.04 11.44 -28.6 Q 12 -24.16 13.040000000000001 -20.12 Q 14.08 -16.080000000000002 15.52 -12.6 Q 16.96 -9.120000000000001 18.72 -6.72 Q 20.56 -4.16 23.28 -2.7600000000000002 Q 26 -1.36 29.12 -1.36 Q 35.6 -1.36 39.32 -6.48 Q 43.04 -11.6 43.04 -20.56 Q 43.04 -24.96 42.44 -29.400000000000002 Q 41.84 -33.84 40.800000000000004 -37.92 Q 39.76 -42 38.32 -45.44 Q 36.88 -48.88 35.2 -51.28 Q 33.36 -53.84 30.6 -55.24 Q 27.84 -56.64 24.72 -56.64 Z M 55.28 -56.88 L 55.28 -57.68 L 89.19999999999999 -57.68 L 89.19999999999999 -43.6 L 88.32 -43.6 Q 87.68 -49.28 83.8 -52.32 Q 79.92 -55.36 73.28 -55.36 L 68.08 -55.36 L 68.08 -30.8 L 72.8 -30.8 Q 77.52 -30.8 80.36 -33.160000000000004 Q 83.2 -35.52 83.75999999999999 -39.84 L 84.56 -39.84 L 84.56 -20.240000000000002 L 83.68 -20.16 Q 83.03999999999999 -24.32 80.2 -26.560000000000002 Q 77.36 -28.8 72.56 -28.8 L 68 -28.8 L 68 -8.88 Q 68 -4.64 69.32 -2.72 Q 70.64 -0.8 73.44 -0.72 L 73.44 0 L 55.28 0 L 55.28 -0.72 Q 58.16 -0.8 59.519999999999996 -2.72 Q 60.879999999999995 -4.64 60.879999999999995 -8.88 L 60.8 -48.800000000000004 Q 60.8 -56.88 55.28 -56.88 Z" transform="translate(205 210)" fill="rgb(30, 30, 30)" stroke="none"/><path d="M 42.800000000000004 -58.64 L 43.68 -58.56 L 43.68 -39.36 L 42.88 -39.36 Q 42.480000000000004 -41.84 41.88 -43.76 Q 41.28 -45.68 40.56 -47.36 Q 38.72 -51.6 35.2 -54.160000000000004 Q 31.68 -56.72 27.76 -56.72 Q 24 -56.72 21 -54.76 Q 18 -52.800000000000004 15.88 -49.2 Q 13.76 -45.6 12.64 -40.44 Q 11.52 -35.28 11.52 -28.8 Q 11.52 -22.32 12.72 -17.16 Q 13.92 -12 16.12 -8.4 Q 18.32 -4.8 21.52 -2.88 Q 24.72 -0.96 28.72 -0.96 Q 33.68 -0.96 38.72 -4.48 L 38.72 -18.32 Q 38.72 -26.48 33.28 -26.48 L 33.36 -27.28 L 51.120000000000005 -27.28 L 51.120000000000005 -26.48 Q 45.68 -26.48 45.68 -18.32 L 45.68 0 L 44.96 0 Q 44.56 -2.32 42.480000000000004 -2.32 Q 41.44 -2.32 39.84 -1.76 Q 35.76 -0.16 32.76 0.52 Q 29.76 1.2 26.560000000000002 1.2 Q 21.12 1.2 16.8 -0.88 Q 12.48 -2.96 9.48 -6.8 Q 6.48 -10.64 4.84 -16.12 Q 3.2 -21.6 3.2 -28.400000000000002 Q 3.2 -35.28 4.84 -40.88 Q 6.48 -46.480000000000004 9.52 -50.44 Q 12.56 -54.4 16.88 -56.52 Q 21.2 -58.64 26.48 -58.64 Q 28.96 -58.64 31.48 -58.160000000000004 Q 34 -57.68 36.56 -56.96 L 38.88 -56.32 Q 40.08 -55.92 40.56 -55.92 Q 42.64 -55.92 42.800000000000004 -58.64 Z M 53.2 -0.72 Q 56 -0.8 57.36 -2.68 Q 58.72 -4.5600000000000005 58.72 -8.88 L 58.72 -48.800000000000004 Q 58.72 -53.120000000000005 57.4 -55 Q 56.08 -56.88 53.2 -56.88 L 53.2 -57.68 L 71.36 -57.68 L 71.36 -56.88 Q 65.84 -56.88 65.84 -48.800000000000004 L 65.84 -8.88 Q 65.84 -4.64 67.16 -2.72 Q 68.48 -0.8 71.36 -0.72 L 71.36 0 L 53.2 0 L 53.2 -0.72 Z M 74.48 -56.88 L 74.48 -57.68 L 93.20000000000002 -57.68 Q 94.88000000000001 -57.68 96.52000000000001 -57.56 Q 98.16000000000001 -57.44 99.60000000000001 -57.28 Q 105.60000000000001 -56.480000000000004 109 -52.96 Q 112.4 -49.44 112.4 -44 Q 112.4 -37.84 108 -34.24 Q 103.60000000000001 -30.64 95.84 -30.560000000000002 Q 97.76 -30.400000000000002 98.80000000000001 -30.240000000000002 Q 99.84 -30.080000000000002 101.28 -29.68 Q 102.88000000000001 -29.28 104.24000000000001 -28.6 Q 105.60000000000001 -27.92 106.88000000000001 -27.04 Q 108.08000000000001 -26.16 108.88000000000001 -25.16 Q 109.68 -24.16 110.20000000000002 -22.72 Q 110.72 -21.28 111 -19.32 Q 111.28 -17.36 111.52000000000001 -14.56 L 112 -8.32 Q 112.32000000000001 -4.24 113.56 -2.48 Q 114.80000000000001 -0.72 117.60000000000001 -0.72 L 117.68 -0.72 L 117.68 0 L 107.44000000000001 0 Q 106.80000000000001 -0.48 106.44000000000001 -0.76 Q 106.08000000000001 -1.04 105.92000000000002 -1.36 Q 105.52000000000001 -2 105.24000000000001 -3.4 Q 104.96000000000001 -4.8 104.80000000000001 -6.32 L 104.24000000000001 -13.120000000000001 Q 103.84 -17.76 103.28 -20.240000000000002 Q 102.72000000000001 -22.72 101.60000000000001 -24.400000000000002 Q 100 -26.560000000000002 97.28 -27.76 Q 94.56 -28.96 91.44000000000001 -29.04 L 87.2 -29.12 L 87.2 -8.88 Q 87.2 -4.5600000000000005 88.48 -2.68 Q 89.76 -0.8 92.64000000000001 -0.72 L 92.64000000000001 0 L 74.48 0 L 74.48 -0.72 Q 77.36000000000001 -0.8 78.72000000000001 -2.72 Q 80.08000000000001 -4.64 80.08000000000001 -8.88 L 80.00000000000001 -48.800000000000004 Q 80.00000000000001 -56.88 74.48 -56.88 M 87.28 -55.44 L 87.28 -31.36 L 92.32000000000001 -31.36 Q 95.04 -31.36 97.32000000000001 -32.28 Q 99.60000000000001 -33.2 101.20000000000002 -34.800000000000004 Q 102.80000000000001 -36.4 103.72000000000001 -38.68 Q 104.64000000000001 -40.96 104.64000000000001 -43.76 Q 104.64000000000001 -49.2 101.44000000000001 -52.24 Q 98.24000000000001 -55.28 92.80000000000001 -55.36 L 87.28 -55.44 Z M 118.56 -0.72 Q 121.36000000000001 -0.8 122.64 -2.68 Q 123.92 -4.5600000000000005 123.92 -8.88 L 123.84 -48.800000000000004 Q 123.84 -53.04 122.60000000000001 -54.96 Q 121.36000000000001 -56.88 118.56 -56.88 L 118.56 -57.68 L 136.56 -57.68 L 136.56 -56.88 Q 133.76 -56.88 132.48000000000002 -54.96 Q 131.20000000000002 -53.04 131.20000000000002 -48.800000000000004 L 131.20000000000002 -2.24 Q 132.08 -2.24 132.76000000000002 -2.2 Q 133.44 -2.16 133.84 -2.16 Q 141.36 -2.16 145.64000000000001 -5.44 Q 149.92000000000002 -8.72 150.8 -15.200000000000001 L 151.44 -15.120000000000001 L 151.44 0 L 118.56 0 L 118.56 -0.72 Z" transform="translate(310 210)" fill="rgb(230, 0, 230)" stroke="none"/></g><g transform="translate(526.6666666666667 595)"><g transform="translate(126.66666666666667 58.5)"><ellipse cx="0" cy="0" rx="16.25" ry="16.25" fill="rgb(30, 30, 30)" stroke="none"/><path d="M 0 22.5 L 15 22.5 Q 30 22.5 37.5 47.5 L 48 82.5 L 37 87.5 L 25 47.5 L 20 47.5 L 41 122.5 L -41 122.5 L -20 47.5 L -25 47.5 L -37 87.5 L -48 82.5 L -37.5 47.5 Q -30 22.5 -15 22.5 Z" fill="rgb(30, 30, 30)" stroke="none"/><ellipse cx="42.5" cy="85" rx="6.03" ry="6.03" fill="rgb(30, 30, 30)" stroke="none"/><ellipse cx="-42.5" cy="85" rx="6.03" ry="6.03" fill="rgb(30, 30, 30)" stroke="none"/><rect x="2.5" y="120" width="15" height="57.5" fill="rgb(30, 30, 30)" stroke="none"/><rect x="-17.5" y="120" width="15" height="57.5" fill="rgb(30, 30, 30)" stroke="none"/><ellipse cx="-10" cy="177.5" rx="7.5" ry="7.5" fill="rgb(30, 30, 30)" stroke="none"/><ellipse cx="10" cy="177.5" rx="7.5" ry="7.5" fill="rgb(30, 30, 30)" stroke="none"/></g></g><g transform="translate(0 892.5)"><g transform="translate(126.66666666666667 58.5)"><ellipse cx="0" cy="0" rx="16.25" ry="16.25" fill="rgb(30, 30, 30)" stroke="none"/><path d="M 0 22.5 L 15 22.5 Q 30 22.5 37.5 47.5 L 48 82.5 L 37 87.5 L 25 47.5 L 20 47.5 L 41 122.5 L -41 122.5 L -20 47.5 L -25 47.5 L -37 87.5 L -48 82.5 L -37.5 47.5 Q -30 22.5 -15 22.5 Z" fill="rgb(30, 30, 30)" stroke="none"/><ellipse cx="42.5" cy="85" rx="6.03" ry="6.03" fill="rgb(30, 30, 30)" stroke="none"/><ellipse cx="-42.5" cy="85" rx="6.03" ry="6.03" fill="rgb(30, 30, 30)" stroke="none"/><rect x="2.5" y="120" width="15" height="57.5" fill="rgb(30, 30, 30)" stroke="none"/><rect x="-17.5" y="120" width="15" height="57.5" fill="rgb(30, 30, 30)" stroke="none"/><ellipse cx="-10" cy="177.5" rx="7.5" ry="7.5" fill="rgb(30, 30, 30)" stroke="none"/><ellipse cx="10" cy="177.5" rx="7.5" ry="7.5" fill="rgb(30, 30, 30)" stroke="none"/></g></g><g transform="translate(263.33333333333337 892.5)"><g transform="translate(126.66666666666667 58.5)"><ellipse cx="0" cy="0" rx="16.25" ry="16.25" fill="rgb(30, 30, 30)" stroke="none"/><path d="M 0 22.5 L 15 22.5 Q 30 22.5 37.5 47.5 L 48 82.5 L 37 87.5 L 25 47.5 L 20 47.5 L 41 122.5 L -41 122.5 L -20 47.5 L -25 47.5 L -37 87.5 L -48 82.5 L -37.5 47.5 Q -30 22.5 -15 22.5 Z" fill="rgb(30, 30, 30)" stroke="none"/><ellipse cx="42.5" cy="85" rx="6.03" ry="6.03" fill="rgb(30, 30, 30)" stroke="none"/><ellipse cx="-42.5" cy="85" rx="6.03" ry="6.03" fill="rgb(30, 30, 30)" stroke="none"/><rect x="2.5" y="120" width="15" height="57.5" fill="rgb(30, 30, 30)" stroke="none"/><rect x="-17.5" y="120" width="15" height="57.5" fill="rgb(30, 30, 30)" stroke="none"/><ellipse cx="-10" cy="177.5" rx="7.5" ry="7.5" fill="rgb(30, 30, 30)" stroke="none"/><ellipse cx="10" cy="177.5" rx="7.5" ry="7.5" fill="rgb(30, 30, 30)" stroke="none"/></g></g><g transform="translate(526.6666666666667 892.5)"><g transform="translate(126.66666666666667 58.5)"><ellipse cx="0" cy="0" rx="16.25" ry="16.25" fill="rgb(30, 30, 30)" stroke="none"/><path d="M 0 22.5 L 15 22.5 Q 30 22.5 37.5 47.5 L 48 82.5 L 37 87.5 L 25 47.5 L 20 47.5 L 41 122.5 L -41 122.5 L -20 47.5 L -25 47.5 L -37 87.5 L -48 82.5 L -37.5 47.5 Q -30 22.5 -15 22.5 Z" fill="rgb(30, 30, 30)" stroke="none"/><ellipse cx="42.5" cy="85" rx="6.03" ry="6.03" fill="rgb(30, 30, 30)" stroke="none"/><ellipse cx="-42.5" cy="85" rx="6.03" ry="6.03" fill="rgb(30, 30, 30)" stroke="none"/><rect x="2.5" y="120" width="15" height="57.5" fill="rgb(30, 30, 30)" stroke="none"/><rect x="-17.5" y="120" width="15" height="57.5" fill="rgb(30, 30, 30)" stroke="none"/><ellipse cx="-10" cy="177.5" rx="7.5" ry="7.5" fill="rgb(30, 30, 30)" stroke="none"/><ellipse cx="10" cy="177.5" rx="7.5" ry="7.5" fill="rgb(30, 30, 30)" stroke="none"/></g></g></g></svg>